<?xml version="1.0" standalone="no"?>
<!DOCTYPE svg PUBLIC "-//W3C//DTD SVG 20010904//EN"
 "http://www.w3.org/TR/2001/REC-SVG-20010904/DTD/svg10.dtd">
<svg version="1.0" xmlns="http://www.w3.org/2000/svg"
 width="930.000000pt" height="410.000000pt" viewBox="0 0 930.000000 410.000000"
 preserveAspectRatio="xMidYMid meet">

<g transform="translate(0.000000,410.000000) scale(0.100000,-0.100000)"
fill="#000000" stroke="none">
<path d="M1947 3373 c-13 -21 -47 -83 -76 -138 -29 -55 -87 -164 -128 -241
l-76 -142 -136 -4 c-160 -5 -204 -20 -275 -93 -65 -67 -89 -137 -84 -245 7
-131 59 -214 170 -270 59 -29 67 -30 188 -30 l126 0 139 -262 c76 -145 145
-271 153 -280 14 -17 50 -18 496 -18 l482 0 145 278 145 277 134 5 c116 4 140
8 173 27 l38 23 42 -22 c35 -19 64 -23 180 -28 l139 -5 134 -255 c75 -140 142
-265 150 -277 l14 -23 484 0 483 0 145 278 145 277 134 5 c103 4 142 10 171
24 35 18 37 18 80 0 32 -13 78 -20 177 -24 l134 -5 142 -268 c78 -147 146
-272 152 -278 6 -6 191 -8 492 -7 l483 3 145 277 145 278 123 0 c116 0 125 1
183 31 110 55 172 158 172 287 0 38 -7 89 -16 115 -21 61 -94 141 -158 174
-45 23 -66 27 -178 31 l-127 5 -142 261 c-77 143 -148 269 -157 279 -14 16
-50 17 -476 17 -254 0 -467 -4 -474 -8 -7 -5 -77 -130 -156 -278 l-143 -269
-134 -6 c-74 -3 -147 -11 -163 -17 l-28 -12 38 -44 39 -44 88 -1 c48 -1 87 -4
87 -7 0 -4 -23 -50 -52 -104 l-51 -97 46 -91 c26 -50 47 -96 47 -103 0 -8 -23
-10 -83 -7 -101 5 -147 26 -191 87 -28 39 -31 50 -30 109 3 144 12 164 41 94
9 -23 14 -59 11 -104 -2 -63 -1 -70 26 -98 15 -17 34 -30 41 -30 23 0 40 62
40 150 -1 105 -27 171 -92 231 -72 66 -119 82 -260 87 l-123 4 -66 122 c-37
66 -96 175 -132 241 -36 66 -76 137 -89 158 l-23 37 -472 -2 -473 -3 -38 -70
c-21 -38 -63 -117 -94 -175 -30 -58 -80 -151 -109 -206 l-55 -102 -137 -4
c-84 -2 -146 -9 -160 -16 l-23 -13 38 -44 38 -44 88 -1 c49 0 87 -3 85 -8 -1
-4 -25 -51 -53 -105 l-50 -98 47 -89 c27 -49 48 -94 48 -99 0 -15 -128 -14
-171 0 -53 18 -99 58 -120 103 -21 46 -25 130 -8 173 l11 28 15 -35 c11 -24
14 -55 10 -99 -5 -62 -4 -66 25 -93 17 -15 36 -28 44 -28 8 0 20 23 30 57 34
116 -2 251 -88 328 -68 62 -116 78 -257 84 l-125 6 -138 255 c-77 140 -146
265 -154 278 l-14 22 -470 0 -470 0 -23 -37z m838 -92 c-14 -35 -359 -677
-373 -693 -14 -17 -46 -18 -394 -18 -208 0 -378 4 -378 8 0 5 85 168 189 363
l188 354 374 5 c206 3 380 3 387 1 8 -2 10 -11 7 -20z m2261 21 c9 -6 -101
-223 -328 -642 l-46 -85 -387 -3 c-366 -2 -387 -1 -380 15 9 25 366 695 377
710 7 9 104 12 381 13 205 0 377 -3 383 -8z m2072 -364 l-193 -363 -379 -3
c-209 -1 -383 1 -387 5 -4 5 79 169 184 365 l192 358 385 2 c212 2 387 2 389
1 1 -1 -84 -165 -191 -365z m-4123 112 c58 -107 105 -195 105 -197 0 -2 -47
-3 -105 -3 -92 0 -108 -3 -125 -20 -24 -24 -25 -49 -6 -76 13 -17 31 -20 161
-24 l147 -5 51 -95 50 -95 -54 -105 -54 -105 -143 0 c-130 0 -145 -2 -158 -19
-18 -25 -18 -46 2 -74 14 -20 23 -22 125 -22 60 0 109 -2 109 -5 0 -5 -199
-387 -205 -393 -1 -2 -91 157 -200 353 -152 274 -195 361 -189 374 30 62 379
710 381 708 1 -2 50 -90 108 -197z m2260 4 c55 -102 102 -189 103 -195 2 -5
-40 -9 -100 -9 -56 0 -108 -4 -114 -8 -19 -12 -33 -48 -28 -69 9 -34 43 -43
184 -45 l135 -3 51 -95 52 -94 -50 -96 c-28 -52 -58 -101 -66 -107 -11 -9 -57
-13 -149 -13 -128 0 -133 -1 -148 -24 -20 -30 -6 -71 27 -79 13 -4 65 -7 116
-7 50 0 92 -3 92 -7 0 -3 -46 -93 -101 -200 -88 -168 -103 -191 -114 -176 -6
10 -27 47 -47 83 -64 117 -89 162 -215 388 l-124 223 187 352 c103 193 189
355 191 360 2 4 7 7 11 7 4 0 52 -84 107 -186z m2173 143 c13 -23 42 -76 64
-117 23 -41 60 -110 84 -152 l43 -78 -109 0 c-105 0 -109 -1 -129 -26 -21 -26
-19 -46 7 -76 13 -16 34 -18 156 -18 l141 0 52 -98 52 -97 -57 -109 -56 -109
-126 7 c-145 7 -173 0 -178 -50 -5 -55 15 -64 139 -64 l109 0 -38 -72 c-22
-40 -69 -131 -107 -201 -37 -71 -68 -127 -70 -125 -15 21 -388 704 -388 712 0
6 49 103 110 216 60 113 145 271 189 352 43 82 81 148 84 148 3 0 15 -19 28
-43z m-5877 -561 c-28 -52 -51 -102 -51 -111 0 -9 20 -56 45 -104 25 -48 45
-90 45 -94 0 -11 -131 -8 -175 4 -25 7 -56 27 -82 54 -94 98 -73 257 42 322
34 19 55 23 133 23 l94 0 -51 -94z m1923 83 c4 -3 -4 -28 -16 -55 -33 -70 -33
-210 0 -273 12 -25 22 -46 22 -47 0 -2 -17 -8 -37 -13 -37 -11 -163 -15 -163
-7 0 3 23 47 50 99 28 52 50 102 50 112 0 10 -20 55 -45 101 -25 45 -45 85
-45 89 0 8 176 3 184 -6z m2242 5 c20 -5 20 -6 -5 -57 -36 -72 -37 -198 -3
-271 16 -35 19 -53 12 -60 -15 -15 -170 -21 -170 -7 0 6 20 52 45 101 25 49
45 99 45 110 0 11 -20 56 -45 100 -25 44 -45 82 -45 85 0 7 139 6 166 -1z
m2302 -27 c70 -46 102 -137 81 -223 -15 -59 -80 -128 -135 -143 -52 -14 -164
-14 -164 0 0 6 16 38 34 72 19 34 42 79 51 99 l15 38 -50 96 -51 96 89 -3 c77
-4 94 -8 130 -32z m-5415 -572 c104 -187 192 -348 194 -357 5 -17 -18 -18
-389 -18 l-395 0 -186 353 c-103 195 -187 357 -187 361 0 3 174 5 387 4 l387
-3 189 -340z m2150 203 c43 -79 129 -235 192 -348 63 -113 115 -211 115 -217
0 -10 -85 -13 -393 -13 l-393 0 -31 63 c-18 34 -56 107 -86 162 -124 230 -257
484 -257 489 0 3 174 6 388 6 l387 0 78 -142z m2367 -209 c107 -194 197 -356
198 -360 2 -5 -168 -8 -394 -7 l-398 3 -188 354 c-103 195 -188 356 -188 358
0 2 174 3 388 3 l387 0 195 -351z"/>
<path d="M3039 1099 c-25 -4 -59 -14 -75 -22 -162 -85 -162 -377 1 -461 48
-25 149 -33 202 -16 101 33 157 122 156 250 -1 84 -19 139 -61 183 -52 55
-134 79 -223 66z m136 -112 c58 -58 67 -188 18 -263 -35 -54 -121 -70 -180
-34 -87 52 -97 218 -18 297 30 30 39 33 90 33 51 0 60 -3 90 -33z"/>
<path d="M1680 1087 l-25 -13 -3 -223 c-2 -156 1 -228 9 -237 19 -22 273 -19
318 4 52 26 76 65 76 124 0 46 -3 53 -41 87 l-41 36 28 26 c25 23 29 34 29 78
0 73 -33 108 -115 121 -84 14 -205 12 -235 -3z m246 -92 c21 -29 17 -61 -12
-84 -21 -17 -41 -21 -95 -21 l-69 0 0 66 0 66 81 -4 c66 -3 83 -7 95 -23z
m-12 -185 c32 -12 51 -50 42 -85 -9 -36 -59 -55 -141 -55 l-65 0 0 75 0 75 69
0 c38 0 81 -4 95 -10z"/>
<path d="M2320 1081 c-6 -12 -10 -106 -10 -235 0 -182 2 -217 16 -230 13 -13
43 -16 169 -16 146 0 155 1 165 21 9 16 8 25 -6 40 -15 17 -31 19 -131 19
l-113 0 0 198 c0 141 -3 201 -12 210 -19 19 -66 15 -78 -7z"/>
<path d="M3695 1081 c-49 -22 -98 -76 -116 -128 -8 -21 -13 -72 -13 -113 1
-88 26 -152 80 -199 78 -69 227 -68 302 2 52 48 70 127 33 147 -29 15 -48 3
-70 -44 -33 -68 -108 -95 -176 -64 -84 38 -99 229 -24 306 33 33 64 41 119 30
33 -7 51 -23 93 -82 34 -49 84 -23 73 36 -19 101 -186 162 -301 109z"/>
<path d="M4270 1074 c-6 -14 -10 -119 -10 -232 0 -224 6 -252 54 -252 36 0 46
19 46 94 l1 71 43 37 44 38 73 -115 c74 -118 101 -141 138 -118 35 22 24 57
-51 167 -40 58 -77 113 -83 121 -7 11 7 31 63 88 72 72 82 93 60 115 -32 32
-61 15 -175 -105 l-112 -118 -1 106 c0 114 -6 129 -52 129 -21 0 -31 -6 -38
-26z"/>
<path d="M5024 1081 c-49 -23 -107 -88 -122 -140 -7 -21 -12 -67 -12 -103 0
-52 6 -77 31 -126 43 -87 101 -122 199 -122 92 0 157 36 190 105 25 52 21 90
-11 100 -23 8 -59 -19 -59 -43 0 -7 -16 -30 -35 -49 -34 -34 -38 -35 -90 -31
-40 3 -62 11 -80 28 -69 64 -56 256 19 305 16 11 44 17 73 17 49 -1 80 -22
111 -75 39 -66 109 -33 82 39 -37 98 -185 145 -296 95z"/>
<path d="M5602 1088 c-16 -16 -17 -450 -2 -479 14 -26 55 -24 74 3 12 16 16
47 16 116 l0 93 108 -3 107 -3 3 -99 c1 -55 8 -106 14 -113 17 -21 61 -11 75
17 9 17 13 83 13 216 0 228 -3 252 -38 261 -47 11 -57 -5 -60 -106 l-3 -91
-109 0 -110 0 0 74 c0 98 -11 126 -48 126 -15 0 -33 -5 -40 -12z"/>
<path d="M6427 1083 c-19 -22 -177 -424 -177 -451 0 -26 24 -44 51 -40 24 3
30 11 59 81 l19 47 94 0 c105 0 104 0 131 -73 21 -57 55 -72 89 -39 l21 21
-88 221 c-49 122 -95 227 -103 235 -20 21 -76 19 -96 -2z m81 -175 c17 -46 33
-91 37 -100 6 -16 0 -18 -69 -18 l-76 0 35 98 c19 53 35 98 35 100 0 16 13
-13 38 -80z"/>
<path d="M6960 1074 c-6 -14 -10 -119 -10 -232 0 -224 6 -252 54 -252 44 0 46
11 46 255 0 249 -1 255 -52 255 -21 0 -31 -6 -38 -26z"/>
<path d="M7349 1083 c-11 -12 -15 -67 -17 -233 -3 -200 -2 -218 16 -240 23
-29 66 -22 76 12 3 13 6 88 6 168 l0 145 109 -166 c60 -91 116 -169 126 -172
29 -12 51 -8 68 11 15 16 17 48 17 236 0 131 -4 225 -10 237 -12 21 -50 25
-68 7 -8 -8 -12 -62 -12 -177 l0 -166 -106 160 c-57 88 -111 168 -119 178 -19
22 -68 22 -86 0z"/>
</g>
</svg>
