<?xml version="1.0" standalone="no"?>
<!DOCTYPE svg PUBLIC "-//W3C//DTD SVG 20010904//EN"
 "http://www.w3.org/TR/2001/REC-SVG-20010904/DTD/svg10.dtd">
<svg version="1.0" xmlns="http://www.w3.org/2000/svg"
 width="1500.000000pt" height="862.000000pt" viewBox="0 0 1500.000000 862.000000"
 preserveAspectRatio="xMidYMid meet">

<g transform="translate(0.000000,862.000000) scale(0.100000,-0.100000)"
fill="#000000" stroke="none">
<path d="M11590 6681 c0 -6 5 -13 10 -16 6 -3 10 1 10 9 0 9 -4 16 -10 16 -5
0 -10 -4 -10 -9z"/>
<path d="M9300 6644 c0 -8 5 -12 10 -9 6 4 8 11 5 16 -9 14 -15 11 -15 -7z"/>
<path d="M11620 6637 c0 -9 9 -26 21 -38 l21 -21 -7 24 c-4 12 -13 30 -21 38
-12 12 -14 12 -14 -3z"/>
<path d="M11670 6539 c0 -7 -3 -10 -6 -6 -3 3 -12 1 -19 -6 -10 -9 -8 -14 8
-22 29 -14 33 -35 7 -35 -20 0 -21 2 -9 18 10 14 9 13 -7 -2 -13 -12 -15 -20
-7 -23 7 -2 9 -11 6 -19 -3 -8 1 -14 10 -14 8 0 17 -9 20 -20 8 -30 27 -24 27
9 0 17 5 33 10 36 16 10 12 55 -5 55 -8 0 -15 6 -15 14 0 8 -4 18 -10 21 -5 3
-10 1 -10 -6z"/>
<path d="M9360 6530 c0 -5 5 -10 11 -10 5 0 7 5 4 10 -3 6 -8 10 -11 10 -2 0
-4 -4 -4 -10z"/>
<path d="M11720 6425 c0 -13 7 -28 16 -33 15 -8 15 -11 0 -35 -16 -24 -16 -26
1 -30 15 -4 15 -5 2 -6 -9 0 -22 5 -29 13 -13 17 -41 10 -34 -8 8 -21 -14 -66
-33 -67 -16 0 -15 -1 2 -9 21 -8 215 -13 215 -5 0 13 -26 61 -37 68 -7 4 -13
15 -13 22 0 8 -4 15 -9 15 -5 0 -14 12 -21 28 -22 52 -35 72 -47 72 -7 0 -13
-11 -13 -25z m-13 -137 c-3 -8 -6 -5 -6 6 -1 11 2 17 5 13 3 -3 4 -12 1 -19z
m38 -18 c3 -5 1 -10 -4 -10 -6 0 -11 5 -11 10 0 6 2 10 4 10 3 0 8 -4 11 -10z"/>
<path d="M9575 5890 c-33 -4 -36 -6 -17 -12 24 -7 83 5 67 13 -6 3 -28 2 -50
-1z"/>
<path d="M11640 5891 c-20 -6 -11 -9 40 -16 49 -7 57 -10 33 -13 -36 -4 -47
-32 -13 -32 12 0 20 -7 21 -17 6 -192 2 -343 -8 -343 -10 0 -13 37 -13 150 0
84 -4 150 -9 150 -15 0 -16 -13 -13 -164 l3 -144 31 -11 c20 -7 28 -15 25 -26
-4 -8 1 -18 9 -23 12 -7 9 -9 -13 -10 -31 -1 -96 -11 -101 -16 -2 -2 136 -7
305 -10 169 -4 333 -9 364 -12 77 -6 89 9 49 62 -16 21 -30 44 -30 50 0 6 -11
24 -25 40 -14 16 -25 37 -25 46 0 9 -6 23 -14 30 -7 8 -17 24 -20 36 -4 12
-11 22 -16 22 -4 0 -11 10 -14 23 -3 12 -19 37 -36 56 -16 18 -30 42 -30 52 0
11 -4 19 -10 19 -5 0 -10 6 -10 14 0 7 -7 19 -15 26 -8 7 -15 21 -15 31 0 10
-9 23 -19 29 -22 11 -391 12 -431 1z"/>
<path d="M9473 5883 c9 -2 23 -2 30 0 6 3 -1 5 -18 5 -16 0 -22 -2 -12 -5z"/>
<path d="M9625 5831 c-6 -20 4 -96 12 -88 2 3 6 25 9 50 6 46 -9 74 -21 38z"/>
<path d="M11686 5805 c-9 -26 -7 -32 5 -12 6 10 9 21 6 23 -2 3 -7 -2 -11 -11z"/>
<path d="M9654 5717 c-7 -20 1 -47 16 -47 12 0 13 30 0 50 -8 12 -10 12 -16
-3z"/>
<path d="M9686 5622 c-4 -7 -12 -10 -17 -7 -5 4 -10 -10 -11 -29 -1 -20 -2
-44 -2 -53 -1 -10 6 -19 15 -21 12 -2 19 8 26 35 10 42 3 97 -11 75z"/>
<path d="M9712 5508 c-17 -17 -15 -67 3 -84 30 -31 8 -42 -77 -39 -66 3 -83 7
-99 24 -29 30 -82 25 -102 -11 l-16 -27 175 0 c96 0 174 1 174 3 0 2 -7 17
-15 32 -8 16 -15 46 -15 66 0 40 -10 54 -28 36z"/>
<path d="M9223 5389 c-15 -6 -13 -8 10 -10 15 -1 32 -2 39 -3 6 -1 13 5 15 11
5 14 -31 14 -64 2z"/>
<path d="M9108 5373 c17 -2 47 -2 65 0 17 2 3 4 -33 4 -36 0 -50 -2 -32 -4z"/>
<path d="M11915 5018 c-258 -8 -315 -14 -265 -27 l25 -7 0 -224 c0 -134 4
-228 10 -232 22 -16 -12 -20 -209 -25 -410 -12 -176 -21 599 -25 l790 -3 -3
25 c-4 25 -26 82 -43 110 -5 8 -14 26 -20 40 -6 14 -19 34 -29 45 -22 23 -82
131 -109 195 -15 36 -34 64 -48 73 -7 4 -13 14 -13 22 0 7 -7 21 -16 30 -18
18 -161 18 -669 3z m-195 -276 c1 -122 -2 -222 -7 -222 -4 0 -9 104 -11 232
-1 152 1 229 7 223 6 -6 11 -102 11 -233z"/>
<path d="M9717 5014 c-1 -2 -84 -4 -184 -5 -100 -1 -188 -6 -195 -10 -8 -6 7
-9 40 -10 28 -1 57 -3 62 -4 6 -1 13 -3 18 -4 4 -1 -4 -7 -18 -14 -23 -11 -21
-12 28 -15 30 -2 52 -8 52 -14 0 -7 6 -4 13 6 13 17 14 17 30 1 9 -9 17 -20
17 -25 0 -12 40 1 41 14 1 6 0 21 -1 34 -2 30 18 28 26 -3 3 -14 13 -25 20
-25 8 0 19 11 24 25 12 31 35 34 27 4 -4 -13 2 -29 13 -42 17 -17 22 -18 36
-6 14 12 16 11 12 -6 -2 -11 -10 -19 -17 -17 -7 1 -10 -2 -7 -7 4 -5 -2 -12
-13 -16 -11 -3 -22 -13 -26 -23 -3 -9 -3 -13 1 -9 4 4 13 -1 20 -11 11 -15 10
-18 -8 -22 -20 -5 -20 -7 -4 -22 15 -16 15 -18 -5 -28 -17 -9 -23 -8 -33 6 -7
9 -18 14 -24 10 -15 -9 -16 -36 -1 -36 7 0 9 -10 7 -25 -3 -14 -1 -28 3 -31
18 -10 8 -24 -16 -24 -14 0 -25 -5 -25 -10 0 -6 11 -16 25 -22 25 -11 34 -28
15 -28 -5 0 -10 -16 -10 -35 0 -19 5 -35 10 -35 6 0 10 -4 10 -9 0 -5 -58 -9
-132 -9 -73 0 -170 -3 -215 -7 -162 -14 -68 -25 221 -25 l293 0 -4 58 c-7 117
-15 166 -23 152 -4 -8 -5 -48 -1 -88 8 -83 1 -93 -61 -91 -32 1 -32 1 -8 10
24 9 25 13 27 101 1 85 -4 107 -27 108 -3 0 -5 -20 -5 -45 0 -25 3 -45 7 -45
5 0 8 -22 8 -50 l0 -50 -35 0 c-35 0 -35 0 -37 48 -2 50 -1 68 3 120 3 28 7
32 31 32 18 0 28 5 28 15 0 18 41 20 58 3 9 -9 12 8 11 78 0 49 -3 107 -7 129
-7 38 -9 40 -50 46 -23 3 -43 4 -45 3z m43 -44 c0 -5 -7 -10 -16 -10 -8 0 -12
5 -9 10 3 6 10 10 16 10 5 0 9 -4 9 -10z"/>
<path d="M9205 5000 c-4 -6 19 -10 57 -10 39 0 58 4 49 9 -18 12 -99 12 -106
1z"/>
<path d="M9654 4911 c4 -5 0 -11 -6 -14 -7 -2 -1 -4 15 -4 15 0 30 4 34 10 3
5 1 7 -5 3 -6 -3 -13 -2 -17 4 -3 5 -11 10 -16 10 -6 0 -8 -4 -5 -9z"/>
<path d="M9240 4875 c0 -8 2 -15 4 -15 2 0 6 7 10 15 3 8 1 15 -4 15 -6 0 -10
-7 -10 -15z"/>
<path d="M9410 4830 c0 -5 7 -10 16 -10 8 0 12 5 9 10 -3 6 -10 10 -16 10 -5
0 -9 -4 -9 -10z"/>
<path d="M9571 4824 c0 -11 3 -14 6 -6 3 7 2 16 -1 19 -3 4 -6 -2 -5 -13z"/>
<path d="M9595 4781 c0 -64 20 -85 28 -28 5 39 -5 77 -21 77 -4 0 -7 -22 -7
-49z"/>
<path d="M9458 4736 c-24 -18 -23 -25 2 -19 11 3 20 12 20 19 0 17 0 17 -22 0z"/>
<path d="M8478 4493 c7 -3 16 -2 19 1 4 3 -2 6 -13 5 -11 0 -14 -3 -6 -6z"/>
<path d="M8510 4490 c0 -6 61 -10 164 -10 99 0 167 4 171 10 4 7 -53 10 -164
10 -107 0 -171 -4 -171 -10z"/>
<path d="M11788 4140 c-212 -3 -389 -8 -392 -11 -4 -4 64 -9 151 -13 87 -4
166 -10 176 -12 17 -5 16 -7 -4 -25 -13 -11 -28 -18 -33 -16 -8 3 -11 -64 -11
-212 l0 -216 -22 -3 c-27 -4 -31 -22 -5 -22 9 0 132 -5 272 -10 140 -5 343
-10 452 -11 202 -3 228 1 228 38 0 8 14 32 30 53 17 21 30 41 30 44 0 7 56
123 73 151 7 11 24 35 40 53 15 18 27 39 27 47 0 8 4 15 10 15 5 0 13 12 16
27 4 15 13 38 20 52 8 14 14 38 14 54 l0 27 -342 -2 c-189 -1 -517 -5 -730 -8z
m-67 -102 c5 -259 3 -398 -8 -398 -10 0 -13 49 -13 210 0 133 4 210 10 210 6
0 10 -10 11 -22z"/>
<path d="M8980 4130 c-10 -6 67 -10 230 -12 135 -1 261 -3 280 -3 19 -1 97 -3
173 -3 l137 -2 0 -24 c0 -14 5 -28 10 -31 6 -4 10 6 10 24 0 16 3 36 6 45 6
14 -35 16 -412 16 -253 0 -425 -4 -434 -10z"/>
<path d="M9695 4071 l-30 -6 -3 -168 -2 -167 25 -10 c22 -8 23 -13 15 -35 -7
-18 -6 -25 3 -25 6 0 3 -7 -8 -16 -14 -10 -40 -14 -85 -13 -111 3 -294 -1
-288 -6 2 -3 104 -8 226 -11 l222 -7 0 72 c0 42 6 83 14 99 8 15 16 72 20 129
4 87 3 101 -9 97 -8 -4 -12 -10 -9 -15 3 -5 0 -9 -5 -9 -6 0 -11 -13 -11 -29
0 -17 -5 -33 -10 -36 -6 -4 -8 -10 -5 -14 9 -15 8 -113 -1 -119 -5 -4 -9 -15
-10 -24 -2 -47 -5 -58 -14 -58 -5 0 -10 9 -10 21 0 15 -5 19 -15 15 -13 -5
-15 16 -15 154 l0 160 25 0 c22 0 25 -4 25 -34 0 -19 4 -37 9 -41 15 -9 28 27
22 59 -7 33 -32 45 -76 37z"/>
<path d="M9568 4053 c6 -2 18 -2 25 0 6 3 1 5 -13 5 -14 0 -19 -2 -12 -5z"/>
<path d="M9742 3940 c0 -14 2 -19 5 -12 2 6 2 18 0 25 -3 6 -5 1 -5 -13z"/>
<path d="M11865 3260 c-88 -4 -196 -8 -240 -10 -57 -1 -73 -4 -55 -10 14 -4
42 -8 62 -9 20 -1 43 -7 50 -14 7 -8 18 -12 25 -10 13 5 25 -42 19 -72 -3 -11
-5 -89 -5 -173 -1 -99 -5 -151 -11 -147 -6 4 -10 72 -10 173 0 217 -18 204
-22 -16 -3 -162 -3 -163 20 -169 12 -3 22 -9 22 -13 0 -5 3 -16 7 -26 5 -13 3
-16 -9 -11 -9 3 -19 3 -23 -1 -7 -7 -9 -8 -47 -12 -66 -7 78 -19 234 -19 188
-1 208 4 208 50 0 10 4 19 9 19 5 0 20 21 33 48 13 26 32 57 44 70 11 13 42
64 69 115 27 51 66 120 87 155 21 34 38 69 38 77 0 13 -26 15 -172 13 -95 -1
-245 -5 -333 -8z"/>
<path d="M9475 3250 c-104 -3 -161 -7 -125 -9 251 -11 319 -11 324 -2 4 5 3
11 -1 13 -5 2 -93 1 -198 -2z"/>
<path d="M9627 3166 c-5 -21 -6 -40 -3 -43 9 -10 18 24 14 54 -3 26 -4 25 -11
-11z"/>
<path d="M9560 3021 c0 -19 26 -48 36 -39 3 3 2 17 -2 32 -7 30 -34 36 -34 7z"/>
<path d="M9525 2871 c-3 -5 -1 -12 4 -15 5 -3 11 1 15 9 6 16 -9 21 -19 6z"/>
<path d="M11660 2370 c-12 -8 -12 -10 2 -15 15 -6 17 -23 15 -123 -1 -65 -6
-125 -11 -134 -6 -13 -4 -18 8 -18 9 0 16 7 16 15 0 9 7 18 15 21 8 4 15 16
15 29 0 13 7 25 15 29 8 3 15 12 15 20 0 7 7 16 15 20 8 3 15 12 15 21 0 8 8
24 18 34 31 35 62 88 62 106 0 9 -185 5 -200 -5z m94 -45 c-4 -8 -12 -15 -19
-15 -10 0 -14 -15 -13 -49 0 -50 -20 -109 -23 -66 -4 67 4 120 19 132 23 17
43 16 36 -2z m21 -45 c3 -5 1 -10 -4 -10 -6 0 -11 5 -11 10 0 6 2 10 4 10 3 0
8 -4 11 -10z"/>
<path d="M9330 2355 c0 -8 5 -15 10 -15 6 0 10 7 10 15 0 8 -4 15 -10 15 -5 0
-10 -7 -10 -15z"/>
<path d="M11633 2025 c-28 -54 -28 -58 -4 -46 17 10 47 91 32 91 -3 0 -16 -21
-28 -45z"/>
</g>
</svg>
